# xmcd
#
# Track frame offsets: 
#        150
#        19942
#        31692
#        51015
#        65739
#        85290
#        100358
#        116654
#
# Disc length: 2017 seconds
#
# Revision: 0
# Processed by: cddbd v1.5.2PL0 Copyright (c) Steve Scherf et al.
# Submitted via: ExactAudioCopyFreeDBPlugin 1.0
#
DISCID=6507df08
DTITLE=Omer Netzer - Goodbye Song
DYEAR=2015
DGENRE=Blues
TTITLE0=Trouble
TTITLE1=Angel
TTITLE2=Couldn't Love You More
TTITLE3=Pray
TTITLE4=Waiting
TTITLE5=Goodbye Song
TTITLE6=On The Road Again
TTITLE7=Down
EXTD=
EXTT0=
EXTT1=
EXTT2=
EXTT3=
EXTT4=
EXTT5=
EXTT6=
EXTT7=
PLAYORDER=
